<svg width="321" height="156" viewBox="0 0 321 156" fill="none" xmlns="http://www.w3.org/2000/svg">
<path d="M16.3514 40.3169C11.2568 40.3169 7.2673 39.1629 4.38286 36.8548C1.53587 34.5095 0.112381 31.2707 0.112381 27.1385H10.1705C10.1705 28.4787 10.6949 29.5211 11.7438 30.2656C12.7927 31.0101 14.2911 31.3824 16.2391 31.3824C18.0746 31.3824 19.4981 31.0846 20.5095 30.489C21.521 29.8561 22.0267 28.9999 22.0267 27.9203C22.0267 26.8779 21.4648 26.1148 20.341 25.6308C19.2546 25.1097 17.4752 24.7188 15.0029 24.4582C9.8708 23.8998 6.16222 22.541 3.87714 20.3818C1.62952 18.2226 0.505714 15.3934 0.505714 11.894C0.505714 9.58597 1.14254 7.53848 2.41619 5.75158C3.7273 3.92746 5.54413 2.51283 7.86667 1.5077C10.1892 0.502566 12.8676 0 15.9019 0C18.9362 0 21.6146 0.539792 23.9371 1.61938C26.2597 2.66173 28.0578 4.15082 29.3314 6.08662C30.6425 8.02243 31.2981 10.2561 31.2981 12.7875H21.4086C21.4086 11.559 20.9216 10.6097 19.9476 9.93962C19.0111 9.23231 17.7 8.87865 16.0143 8.87865C14.3286 8.87865 13.0175 9.17647 12.081 9.7721C11.1819 10.3677 10.7324 11.1867 10.7324 12.2291C10.7324 13.2342 11.1819 13.9974 12.081 14.5186C12.98 15.0397 14.5346 15.412 16.7448 15.6354C22.2514 16.1938 26.241 17.5339 28.7133 19.6559C31.1857 21.7406 32.4219 24.5885 32.4219 28.1995C32.4219 30.582 31.7476 32.704 30.3991 34.5653C29.0505 36.3895 27.1587 37.8041 24.7238 38.8092C22.2889 39.8143 19.4981 40.3169 16.3514 40.3169Z" fill="white"/>
<path d="M63.4035 23.7322C63.4035 25.4075 63.1975 27.1758 62.7854 29.0371H45.9283C46.9771 31.5313 49.5432 32.7784 53.6264 32.7784C56.2486 32.7784 58.721 32.3131 61.0435 31.3824L62.673 37.9716C59.4889 39.5351 56.0051 40.3169 52.2216 40.3169C47.3143 40.3169 43.4184 39.0884 40.534 36.6314C37.687 34.1372 36.2635 30.6565 36.2635 26.1892C36.2635 23.4717 36.8254 21.0519 37.9492 18.93C39.1105 16.808 40.7587 15.1514 42.894 13.9601C45.0667 12.7689 47.614 12.1732 50.5359 12.1732C53.1206 12.1732 55.387 12.6572 57.3349 13.6251C59.2829 14.593 60.7813 15.9518 61.8302 17.7015C62.8791 19.4139 63.4035 21.4242 63.4035 23.7322ZM50.7606 19.3208C49.5245 19.3208 48.4568 19.6745 47.5578 20.3818C46.6962 21.0519 46.0781 22.0012 45.7035 23.2297H54.9749C55.0124 22.0012 54.6565 21.0519 53.9073 20.3818C53.1581 19.6745 52.1092 19.3208 50.7606 19.3208Z" fill="white"/>
<path d="M82.2923 20.1585L85.5513 12.7875H95.8342V13.2342L82.4047 40.2052H78.1904L64.7047 13.2342V12.7875H74.9313L78.1904 20.2143L80.2694 25.6867L82.2923 20.1585Z" fill="white"/>
<path d="M124.094 23.7322C124.094 25.4075 123.888 27.1758 123.476 29.0371H106.618C107.667 31.5313 110.233 32.7784 114.316 32.7784C116.939 32.7784 119.411 32.3131 121.734 31.3824L123.363 37.9716C120.179 39.5351 116.695 40.3169 112.912 40.3169C108.004 40.3169 104.109 39.0884 101.224 36.6314C98.3771 34.1372 96.9536 30.6565 96.9536 26.1892C96.9536 23.4717 97.5155 21.0519 98.6393 18.93C99.8006 16.808 101.449 15.1514 103.584 13.9601C105.757 12.7689 108.304 12.1732 111.226 12.1732C113.811 12.1732 116.077 12.6572 118.025 13.6251C119.973 14.593 121.471 15.9518 122.52 17.7015C123.569 19.4139 124.094 21.4242 124.094 23.7322ZM111.451 19.3208C110.215 19.3208 109.147 19.6745 108.248 20.3818C107.386 21.0519 106.768 22.0012 106.394 23.2297H115.665C115.702 22.0012 115.347 21.0519 114.597 20.3818C113.848 19.6745 112.799 19.3208 111.451 19.3208Z" fill="white"/>
<path d="M147.464 12.1732C149.525 12.1732 151.342 12.6572 152.915 13.6251C154.526 14.593 155.762 15.9704 156.624 17.7573C157.485 19.507 157.916 21.5359 157.916 23.8439V39.7027H148.364V24.5699C148.364 21.5917 147.015 20.1026 144.318 20.1026C142.932 20.1026 141.827 20.5866 141.003 21.5545C140.178 22.5224 139.766 23.8253 139.766 25.4633V39.7027H130.214V23.1738C130.214 22.0943 129.971 21.3311 129.484 20.8844C129.034 20.4377 128.229 20.2701 127.067 20.3818V12.7875C128.416 12.5269 129.764 12.3966 131.113 12.3966C135.009 12.3966 137.425 13.7554 138.362 16.473C140.534 13.6065 143.569 12.1732 147.464 12.1732Z" fill="white"/>
<path d="M179.436 40.3169C174.341 40.3169 170.351 39.1629 167.467 36.8548C164.62 34.5095 163.196 31.2707 163.196 27.1385H173.255C173.255 28.4787 173.779 29.5211 174.828 30.2656C175.877 31.0101 177.375 31.3824 179.323 31.3824C181.159 31.3824 182.582 31.0846 183.594 30.489C184.605 29.8561 185.111 28.9999 185.111 27.9203C185.111 26.8779 184.549 26.1148 183.425 25.6308C182.339 25.1097 180.559 24.7188 178.087 24.4582C172.955 23.8998 169.246 22.541 166.961 20.3818C164.714 18.2226 163.59 15.3934 163.59 11.894C163.59 9.58597 164.227 7.53848 165.5 5.75158C166.811 3.92746 168.628 2.51283 170.951 1.5077C173.273 0.502566 175.952 0 178.986 0C182.02 0 184.699 0.539792 187.021 1.61938C189.344 2.66173 191.142 4.15082 192.416 6.08662C193.727 8.02243 194.382 10.2561 194.382 12.7875H184.493C184.493 11.559 184.006 10.6097 183.032 9.93962C182.095 9.23231 180.784 8.87865 179.098 8.87865C177.413 8.87865 176.102 9.17647 175.165 9.7721C174.266 10.3677 173.816 11.1867 173.816 12.2291C173.816 13.2342 174.266 13.9974 175.165 14.5186C176.064 15.0397 177.619 15.412 179.829 15.6354C185.336 16.1938 189.325 17.5339 191.797 19.6559C194.27 21.7406 195.506 24.5885 195.506 28.1995C195.506 30.582 194.832 32.704 193.483 34.5653C192.135 36.3895 190.243 37.8041 187.808 38.8092C185.373 39.8143 182.582 40.3169 179.436 40.3169Z" fill="white"/>
<path d="M226.488 23.7322C226.488 25.4075 226.282 27.1758 225.87 29.0371H209.012C210.061 31.5313 212.627 32.7784 216.71 32.7784C219.333 32.7784 221.805 32.3131 224.128 31.3824L225.757 37.9716C222.573 39.5351 219.089 40.3169 215.306 40.3169C210.398 40.3169 206.503 39.0884 203.618 36.6314C200.771 34.1372 199.348 30.6565 199.348 26.1892C199.348 23.4717 199.909 21.0519 201.033 18.93C202.195 16.808 203.843 15.1514 205.978 13.9601C208.151 12.7689 210.698 12.1732 213.62 12.1732C216.205 12.1732 218.471 12.6572 220.419 13.6251C222.367 14.593 223.865 15.9518 224.914 17.7015C225.963 19.4139 226.488 21.4242 226.488 23.7322ZM213.845 19.3208C212.609 19.3208 211.541 19.6745 210.642 20.3818C209.78 21.0519 209.162 22.0012 208.788 23.2297H218.059C218.096 22.0012 217.741 21.0519 216.991 20.3818C216.242 19.6745 215.193 19.3208 213.845 19.3208Z" fill="white"/>
<path d="M245.376 20.1585L248.635 12.7875H258.918V13.2342L245.489 40.2052H241.274L227.789 13.2342V12.7875H238.015L241.274 20.2143L243.354 25.6867L245.376 20.1585Z" fill="white"/>
<path d="M287.178 23.7322C287.178 25.4075 286.972 27.1758 286.56 29.0371H269.702C270.751 31.5313 273.317 32.7784 277.401 32.7784C280.023 32.7784 282.495 32.3131 284.818 31.3824L286.447 37.9716C283.263 39.5351 279.779 40.3169 275.996 40.3169C271.089 40.3169 267.193 39.0884 264.308 36.6314C261.461 34.1372 260.038 30.6565 260.038 26.1892C260.038 23.4717 260.6 21.0519 261.723 18.93C262.885 16.808 264.533 15.1514 266.668 13.9601C268.841 12.7689 271.388 12.1732 274.31 12.1732C276.895 12.1732 279.161 12.6572 281.109 13.6251C283.057 14.593 284.555 15.9518 285.604 17.7015C286.653 19.4139 287.178 21.4242 287.178 23.7322ZM274.535 19.3208C273.299 19.3208 272.231 19.6745 271.332 20.3818C270.47 21.0519 269.852 22.0012 269.478 23.2297H278.749C278.787 22.0012 278.431 21.0519 277.682 20.3818C276.932 19.6745 275.883 19.3208 274.535 19.3208Z" fill="white"/>
<path d="M310.549 12.1732C312.609 12.1732 314.426 12.6572 315.999 13.6251C317.61 14.593 318.846 15.9704 319.708 17.7573C320.569 19.507 321 21.5359 321 23.8439V39.7027H311.448V24.5699C311.448 21.5917 310.099 20.1026 307.402 20.1026C306.016 20.1026 304.911 20.5866 304.087 21.5545C303.263 22.5224 302.85 23.8253 302.85 25.4633V39.7027H293.298V23.1738C293.298 22.0943 293.055 21.3311 292.568 20.8844C292.118 20.4377 291.313 20.2701 290.151 20.3818V12.7875C291.5 12.5269 292.849 12.3966 294.197 12.3966C298.093 12.3966 300.509 13.7554 301.446 16.473C303.618 13.6065 306.653 12.1732 310.549 12.1732Z" fill="white"/>
<path d="M39.4457 69.8938C39.5956 71.4573 39.6705 72.5928 39.6705 73.3001C39.6705 77.2834 38.8464 80.7827 37.1981 83.7981C35.5873 86.7763 33.2835 89.0843 30.2867 90.7223C27.2898 92.3603 23.7873 93.1793 19.7791 93.1793C15.9581 93.1793 12.5492 92.3231 9.55238 90.6107C6.55556 88.8982 4.21429 86.5157 2.52857 83.4631C0.842857 80.4104 0 76.9297 0 73.0209C0 69.112 0.842857 65.6313 2.52857 62.5787C4.21429 59.5261 6.55556 57.1435 9.55238 55.4311C12.5492 53.7186 15.9581 52.8624 19.7791 52.8624C24.574 52.8624 28.601 54.0351 31.86 56.3804C35.1565 58.6885 37.4041 62.0017 38.6029 66.32H27.8143C26.9902 64.9798 25.9787 64.0119 24.78 63.4163C23.5813 62.7834 22.0454 62.467 20.1724 62.467C17.2879 62.467 14.9467 63.4349 13.1486 65.3707C11.3879 67.3065 10.5076 69.8566 10.5076 73.0209C10.5076 76.1852 11.4254 78.7352 13.261 80.671C15.0965 82.6068 17.494 83.5747 20.4533 83.5747C22.4762 83.5747 24.2368 83.1094 25.7352 82.1787C27.2337 81.2481 28.32 79.9823 28.9943 78.3816H20.06V69.8938H39.4457Z" fill="white"/>
<path d="M68.9743 81.8437C68.9743 83.1094 69.199 83.947 69.6485 84.3565C70.0981 84.766 70.9222 84.9335 72.1209 84.8591V92.5651C70.8473 92.8629 69.5736 93.0118 68.3 93.0118C66.5768 93.0118 65.0784 92.714 63.8047 92.1184C62.5311 91.5227 61.6882 90.592 61.2762 89.3263C60.452 90.5176 59.272 91.4669 57.7362 92.1742C56.2003 92.8443 54.4771 93.1793 52.5666 93.1793C49.6822 93.1793 47.3597 92.4162 45.599 90.8899C43.8384 89.3263 42.9581 87.2602 42.9581 84.6916C42.9581 81.8995 43.8758 79.7404 45.7114 78.2141C47.5844 76.6877 50.113 75.9246 53.2971 75.9246C55.4698 75.9246 57.5489 76.2596 59.5343 76.9297V76.1479C59.5343 73.6537 57.5863 72.4066 53.6904 72.4066C52.4917 72.4066 51.2555 72.5555 49.9819 72.8534C48.7082 73.1512 47.5095 73.5607 46.3857 74.0818L44.5876 67.2135C48.2212 65.7616 51.8362 65.0357 55.4324 65.0357C59.4781 65.0357 62.7371 65.9477 65.2095 67.7719C67.7193 69.596 68.9743 72.2763 68.9743 75.8129V81.8437ZM54.9828 85.9759C56.219 85.9759 57.2866 85.6222 58.1857 84.9149C59.0847 84.2076 59.553 83.3328 59.5904 82.2904V82.0112C58.2419 81.6017 56.9682 81.397 55.7695 81.397C53.3346 81.397 52.1171 82.1787 52.1171 83.7423C52.1171 85.2313 53.0724 85.9759 54.9828 85.9759Z" fill="white"/>
<path d="M87.7568 93.1793C83.6362 93.1793 80.5457 92.4348 78.4854 90.9457C76.4625 89.4566 75.3574 87.1672 75.1701 84.0773H84.6101C84.7974 85.6781 85.8089 86.4785 87.6444 86.4785C88.506 86.4785 89.2178 86.3296 89.7797 86.0317C90.3416 85.7339 90.6225 85.2686 90.6225 84.6357C90.6225 83.9656 90.3603 83.5189 89.8359 83.2955C89.3114 83.035 88.5622 82.8488 87.5882 82.7371C84.067 82.3276 81.1825 81.49 78.9349 80.2243C76.6873 78.9586 75.5635 76.7994 75.5635 73.7468C75.5635 70.8803 76.706 68.7211 78.9911 67.2693C81.2762 65.7802 84.1044 65.0357 87.4759 65.0357C90.8473 65.0357 93.6568 65.8174 95.9044 67.381C98.1895 68.9073 99.407 71.1037 99.5568 73.9702H90.7911C90.6413 72.5555 89.6486 71.8482 87.813 71.8482C86.914 71.8482 86.2209 72.0157 85.734 72.3508C85.2844 72.6486 85.0597 73.0581 85.0597 73.5793C85.0597 74.2121 85.3406 74.6589 85.9025 74.9195C86.4644 75.1428 87.1949 75.3103 88.094 75.422C90.5663 75.7571 92.6454 76.1852 94.3311 76.7064C96.0543 77.2275 97.4778 78.1024 98.6016 79.3309C99.7254 80.5221 100.287 82.1787 100.287 84.3007C100.287 87.0555 99.1447 89.2333 96.8597 90.834C94.5746 92.3976 91.5403 93.1793 87.7568 93.1793Z" fill="white"/>
<path d="M4.72 104.85V142.989H25.6791V143.938H3.76476V104.85H4.72Z" fill="white"/>
<path d="M42.0516 144.385C39.6166 144.385 37.3316 143.845 35.1963 142.766C33.0611 141.686 31.3379 140.104 30.0268 138.019C28.7157 135.897 28.0601 133.366 28.0601 130.425C28.0601 127.484 28.7157 124.971 30.0268 122.887C31.3754 120.802 33.136 119.238 35.3087 118.196C37.4814 117.116 39.7852 116.577 42.2201 116.577C44.655 116.577 46.9589 117.116 49.1316 118.196C51.3043 119.238 53.0462 120.802 54.3573 122.887C55.7058 124.971 56.3801 127.484 56.3801 130.425C56.3801 133.403 55.6871 135.953 54.3011 138.075C52.9525 140.16 51.1731 141.742 48.963 142.822C46.7903 143.864 44.4865 144.385 42.0516 144.385ZM42.0516 143.436C44.3366 143.436 46.4906 142.933 48.5135 141.928C50.5738 140.923 52.2408 139.453 53.5144 137.517C54.7881 135.544 55.4249 133.18 55.4249 130.425C55.4249 127.67 54.7881 125.325 53.5144 123.389C52.2782 121.453 50.6487 120.001 48.6258 119.034C46.6404 118.028 44.5052 117.526 42.2201 117.526C39.935 117.526 37.7811 118.028 35.7582 119.034C33.7354 120.001 32.1058 121.453 30.8696 123.389C29.6335 125.325 29.0154 127.67 29.0154 130.425C29.0154 133.143 29.6335 135.488 30.8696 137.461C32.1058 139.434 33.7166 140.923 35.702 141.928C37.6874 142.933 39.8039 143.436 42.0516 143.436Z" fill="white"/>
<path d="M76.5723 116.577C80.0186 116.577 83.5399 117.377 87.1361 118.978V144.776C87.1361 147.196 86.5742 149.243 85.4504 150.918C84.3266 152.631 82.8281 153.897 80.9551 154.716C79.0821 155.572 77.0405 156 74.8304 156C71.4215 156 68.0126 154.995 64.6037 152.985L65.0532 152.147C68.3123 154.083 71.5713 155.051 74.8304 155.051C76.8907 155.051 78.7824 154.66 80.5056 153.878C82.2288 153.134 83.5961 151.979 84.6075 150.416C85.6564 148.89 86.1808 147.01 86.1808 144.776V140.42C84.7948 141.5 83.1653 142.338 81.2923 142.933C79.4567 143.492 77.565 143.771 75.617 143.771C72.9199 143.771 70.5786 143.212 68.5932 142.096C66.6078 140.942 65.072 139.341 63.9856 137.293C62.9367 135.246 62.4123 132.863 62.4123 130.146C62.4123 127.428 63.0116 125.046 64.2104 122.998C65.4091 120.951 67.0761 119.369 69.2113 118.252C71.3466 117.135 73.8002 116.577 76.5723 116.577ZM75.617 142.822C79.6253 142.822 83.1466 141.649 86.1808 139.304V119.592C82.9967 118.215 79.7939 117.526 76.5723 117.526C73.95 117.526 71.6462 118.047 69.6608 119.089C67.6754 120.094 66.1208 121.546 64.997 123.445C63.9107 125.344 63.3675 127.577 63.3675 130.146C63.3675 134.055 64.4539 137.144 66.6265 139.415C68.7992 141.686 71.7961 142.822 75.617 142.822Z" fill="white"/>
<path d="M97.4273 109.987C97.0527 109.987 96.7343 109.876 96.472 109.652C96.2473 109.392 96.1349 109.075 96.1349 108.703C96.1349 108.331 96.2473 108.033 96.472 107.81C96.7343 107.549 97.0527 107.419 97.4273 107.419C97.7644 107.419 98.0454 107.549 98.2701 107.81C98.5324 108.033 98.6635 108.331 98.6635 108.703C98.6635 109.075 98.5324 109.392 98.2701 109.652C98.0454 109.876 97.7644 109.987 97.4273 109.987ZM97.8768 143.938H96.9216V117.023H97.8768V143.938Z" fill="white"/>
<path d="M116.994 144.385C114.034 144.385 111.506 143.734 109.408 142.431C107.31 141.091 106.093 139.155 105.756 136.623H106.767C107.067 138.894 108.153 140.607 110.026 141.761C111.937 142.877 114.259 143.436 116.994 143.436C119.916 143.436 122.369 142.915 124.355 141.872C126.34 140.83 127.333 139.211 127.333 137.014C127.333 135.339 126.846 134.073 125.872 133.217C124.935 132.361 123.83 131.784 122.557 131.486C121.321 131.151 119.391 130.797 116.769 130.425C113.548 129.941 110.981 129.215 109.071 128.247C107.198 127.242 106.261 125.641 106.261 123.445C106.261 121.1 107.273 119.369 109.296 118.252C111.319 117.135 113.847 116.577 116.881 116.577C119.654 116.577 122.032 117.209 124.018 118.475C126.041 119.704 127.202 121.416 127.501 123.612H126.546C126.247 121.714 125.179 120.225 123.343 119.145C121.545 118.066 119.391 117.526 116.881 117.526C114.072 117.526 111.749 117.991 109.914 118.922C108.116 119.853 107.217 121.36 107.217 123.445C107.217 125.269 108.06 126.628 109.745 127.521C111.431 128.378 113.81 129.029 116.881 129.476C119.504 129.885 121.545 130.276 123.006 130.648C124.467 131.021 125.703 131.709 126.715 132.714C127.764 133.72 128.288 135.153 128.288 137.014C128.288 139.508 127.202 141.37 125.029 142.598C122.894 143.79 120.215 144.385 116.994 144.385Z" fill="white"/>
<path d="M151.788 143.212C149.69 143.957 147.817 144.329 146.169 144.329C140.924 144.329 138.302 140.737 138.302 133.552V117.973H131.784V117.023H138.302V109.094H139.257V117.023H150.383V117.973H139.257V133.552C139.257 136.94 139.838 139.434 140.999 141.035C142.16 142.598 143.883 143.38 146.169 143.38C147.105 143.38 147.948 143.306 148.697 143.157C149.484 143.008 150.402 142.729 151.45 142.319L151.788 143.212Z" fill="white"/>
<path d="M159.16 109.987C158.785 109.987 158.467 109.876 158.205 109.652C157.98 109.392 157.868 109.075 157.868 108.703C157.868 108.331 157.98 108.033 158.205 107.81C158.467 107.549 158.785 107.419 159.16 107.419C159.497 107.419 159.778 107.549 160.003 107.81C160.265 108.033 160.396 108.331 160.396 108.703C160.396 109.075 160.265 109.392 160.003 109.652C159.778 109.876 159.497 109.987 159.16 109.987ZM159.61 143.938H158.654V117.023H159.61V143.938Z" fill="white"/>
<path d="M181.536 144.385C179.101 144.385 176.835 143.845 174.737 142.766C172.639 141.649 170.935 140.048 169.624 137.963C168.35 135.842 167.713 133.31 167.713 130.369C167.713 127.428 168.369 124.934 169.68 122.887C171.028 120.802 172.752 119.238 174.849 118.196C176.985 117.116 179.214 116.577 181.536 116.577C184.196 116.577 186.668 117.265 188.953 118.643C191.238 119.983 192.868 121.9 193.842 124.394H192.887C191.838 122.123 190.283 120.411 188.223 119.257C186.2 118.103 183.971 117.526 181.536 117.526C179.326 117.526 177.228 118.01 175.243 118.978C173.295 119.946 171.703 121.397 170.467 123.333C169.268 125.269 168.668 127.614 168.668 130.369C168.668 133.124 169.249 135.488 170.41 137.461C171.609 139.397 173.182 140.886 175.13 141.928C177.116 142.933 179.251 143.436 181.536 143.436C183.971 143.436 186.256 142.822 188.391 141.593C190.564 140.327 192.137 138.522 193.111 136.177H194.123C193.149 138.782 191.463 140.811 189.066 142.263C186.706 143.678 184.196 144.385 181.536 144.385Z" fill="white"/>
<path d="M210.663 144.385C207.704 144.385 205.175 143.734 203.077 142.431C200.979 141.091 199.762 139.155 199.425 136.623H200.436C200.736 138.894 201.822 140.607 203.695 141.761C205.606 142.877 207.928 143.436 210.663 143.436C213.585 143.436 216.039 142.915 218.024 141.872C220.009 140.83 221.002 139.211 221.002 137.014C221.002 135.339 220.515 134.073 219.541 133.217C218.605 132.361 217.499 131.784 216.226 131.486C214.99 131.151 213.06 130.797 210.438 130.425C207.217 129.941 204.651 129.215 202.74 128.247C200.867 127.242 199.931 125.641 199.931 123.445C199.931 121.1 200.942 119.369 202.965 118.252C204.988 117.135 207.516 116.577 210.551 116.577C213.323 116.577 215.701 117.209 217.687 118.475C219.71 119.704 220.871 121.416 221.171 123.612H220.215C219.916 121.714 218.848 120.225 217.012 119.145C215.214 118.066 213.06 117.526 210.551 117.526C207.741 117.526 205.419 117.991 203.583 118.922C201.785 119.853 200.886 121.36 200.886 123.445C200.886 125.269 201.729 126.628 203.414 127.521C205.1 128.378 207.479 129.029 210.551 129.476C213.173 129.885 215.214 130.276 216.675 130.648C218.136 131.021 219.372 131.709 220.384 132.714C221.433 133.72 221.957 135.153 221.957 137.014C221.957 139.508 220.871 141.37 218.698 142.598C216.563 143.79 213.885 144.385 210.663 144.385Z" fill="white"/>
<mask id="mask0_2119_59" style="mask-type:alpha" maskUnits="userSpaceOnUse" x="109" y="59" width="212" height="35">
<path d="M302.395 59.1865H320.282V93.5083H302.395V59.1865Z" fill="white"/>
<path d="M278.864 59.1865H295.557V93.5083H278.864V59.1865Z" fill="white"/>
<path d="M256.524 59.1865H272.025V93.5083H256.524V59.1865Z" fill="white"/>
<path d="M235.377 59.1865H249.686V93.5083H235.377V59.1865Z" fill="white"/>
<path d="M215.423 59.1865H228.539V93.5083H215.423V59.1865Z" fill="white"/>
<path d="M196.66 59.1865H208.585V93.5083H196.66V59.1865Z" fill="white"/>
<path d="M179.091 59.1865H189.822V93.5083H179.091V59.1865Z" fill="white"/>
<path d="M162.713 59.1865H172.253V93.5083H162.713V59.1865Z" fill="white"/>
<path d="M147.528 59.1865H155.875V93.5083H147.528V59.1865Z" fill="white"/>
<path d="M133.536 59.1865H140.69V93.5083H133.536V59.1865Z" fill="white"/>
<path d="M120.736 59.1865H126.698V93.5083H120.736V59.1865Z" fill="white"/>
<path d="M109.128 59.1865H113.898V93.5083H109.128V59.1865Z" fill="white"/>
</mask>
<g mask="url(#mask0_2119_59)">
<rect x="109.128" y="93.5083" width="34.3218" height="211.189" transform="rotate(-90 109.128 93.5083)" fill="url(#paint0_linear_2119_59)"/>
</g>
<defs>
<linearGradient id="paint0_linear_2119_59" x1="126.289" y1="93.5083" x2="126.289" y2="304.698" gradientUnits="userSpaceOnUse">
<stop stop-color="white"/>
<stop offset="0.221154" stop-color="#CC774F"/>
<stop offset="0.365385" stop-color="#B9496D"/>
<stop offset="0.509615" stop-color="#A451A1"/>
<stop offset="0.653846" stop-color="#8841B9"/>
<stop offset="0.802885" stop-color="#5743BE"/>
<stop offset="0.942308" stop-color="#2758B2"/>
</linearGradient>
</defs>
</svg>
